<svg id="a158e8b0-b17c-4169-9038-152f857ff447" data-name="Layer 1" xmlns="http://www.w3.org/2000/svg" width="1210.49" height="273.33" viewBox="0 0 1210.49 273.33"><g id="e6d1b3c2-66a4-4145-9f1f-3962523a611b" data-name="surface1"><path d="M103,5.5c19.21,15.22,66.71,62.42,55.63,150.43A98.78,98.78,0,0,0,182,134.88a4.86,4.86,0,0,1,8.51,2,215.5,215.5,0,0,1,4.61,40.72c1.16,53.86-41.3,100.08-95.17,100.18-52.24.09-94.87-42.62-94.87-95.05,0-45.44,22-69.16,30.46-108.25a4.85,4.85,0,0,1,7.23-3.07c6.43,3.82,16.59,11,23.24,21.14,0,0,27-34.24,29.15-83.38A4.85,4.85,0,0,1,103,5.5Z" transform="translate(-5.11 -4.46)" style="fill:#ffaa5f"/><path d="M151.48,182.28c-7.59,11.39-17.2,14-17.2,14,3.89-46.71-14-81-21.33-92.9a2.22,2.22,0,0,0-4,.7c-6.73,31.21-24.79,48.54-24.79,48.54-5.88-6.86-11.46-9.66-14.37-10.75A2.18,2.18,0,0,0,67,143.19c-7.42,19.89-21.44,35.25-24.63,58.13C37.63,235,62.08,266.87,96,269.22a58.5,58.5,0,0,0,62.67-58.34c0-13.55-1.8-22.86-3.18-28A2.21,2.21,0,0,0,151.48,182.28Z" transform="translate(-5.11 -4.46)" style="fill:#ffe17d"/><path d="M101.56,177.09a2.53,2.53,0,0,0-4.23-.85C89.66,184.66,69.06,209.3,69.06,231a31.1,31.1,0,1,0,62.2,0C131.26,214.67,111.18,201.28,101.56,177.09Z" transform="translate(-5.11 -4.46)" style="fill:#fff"/><path d="M99.17,277.74C89,277,1.86,260.73,31.91,151.05A415.05,415.05,0,0,0,45.1,72.83c-.8-.5-1.58-1-2.3-1.41a4.85,4.85,0,0,0-7.23,3.07C27.1,113.58,5.11,137.3,5.11,182.74A95,95,0,0,0,99.17,277.74Z" transform="translate(-5.11 -4.46)" style="fill:#ff8c5a"/></g><path d="M241.28,229.24q2.29-42.09,3.44-78.62t1.14-54.68q2.56.09,4.35.09c1.19,0,2.6,0,4.25-.09l-2.63,62.4h90.73l1.84-49q.19-4.09.19-13.37,2.57.09,4.35.09c1.19,0,2.6,0,4.25-.09q-3.72,60.54-5.17,133.3c-1.61-.07-3-.1-4.25-.1s-2.74,0-4.35.1q2.35-34,2.91-64.94H251.62l-1.55,47.94-.19,17c-1.7-.07-3.13-.1-4.3-.1S242.9,229.17,241.28,229.24Z" transform="translate(-5.11 -4.46)"/><path d="M424.38,128.55A61.12,61.12,0,0,1,442,131.09a37.34,37.34,0,0,1,15,8.64,39,39,0,0,1,9.91,16,63.35,63.35,0,0,1,3.42,20.9,72.33,72.33,0,0,1-3.61,22.85,50.67,50.67,0,0,1-10.26,18.31,36.35,36.35,0,0,1-15.57,10.4,58.78,58.78,0,0,1-19,3A59.94,59.94,0,0,1,408,229.58a40.71,40.71,0,0,1-12.69-5.42A39.13,39.13,0,0,1,385,214.3a43.82,43.82,0,0,1-6.74-14.36,64.53,64.53,0,0,1-2.3-17.29,69.49,69.49,0,0,1,5.86-28.76q5.86-13,17.53-19.18A52.83,52.83,0,0,1,424.38,128.55Zm-.19,5.47a43,43,0,0,0-21.58,5.66q-10,5.65-14.65,17.27a67.27,67.27,0,0,0-4.69,25.46A61.16,61.16,0,0,0,386,200.75a34.51,34.51,0,0,0,8.65,14.48,33.11,33.11,0,0,0,12.84,8.2,45.53,45.53,0,0,0,14.5,2.29,46.41,46.41,0,0,0,16.31-2.83,33,33,0,0,0,13.43-9.46,41.42,41.42,0,0,0,8.54-16.29A75,75,0,0,0,463,176.65a64.47,64.47,0,0,0-2.69-18.87,31.48,31.48,0,0,0-8.35-14.15A31.87,31.87,0,0,0,439,136.17,51.87,51.87,0,0,0,424.19,134Z" transform="translate(-5.11 -4.46)"/><path d="M531.41,223.08a45.09,45.09,0,0,0-1.17,6.16,61.1,61.1,0,0,1-14.55,1.95,36.87,36.87,0,0,1-9.91-1.22,14.07,14.07,0,0,1-7.08-4.4,16,16,0,0,1-3.61-7,36.81,36.81,0,0,1-.88-8.25c0-.52,0-1.33.05-2.44s.14-3.55.34-7.32l3.26-64.65H485.81a49.58,49.58,0,0,0,.49-5.28h11.92q.51-6.15.81-18.36a43,43,0,0,0,6.41-1.27q-.69,15.82-.69,19.63h29.3a49.58,49.58,0,0,0-.49,5.28H504.41l-3.19,66.92-.1,4q0,8.19,1.9,11.9a11.59,11.59,0,0,0,5.38,5.36,16.41,16.41,0,0,0,7.18,1.66,40.4,40.4,0,0,0,5.62-.42Q524.19,224.88,531.41,223.08Z" transform="translate(-5.11 -4.46)"/><path d="M594.6,229.24l1.94-25,2.52-48.83,1.07-34.57q.09-5.57.09-11.13,0-4.2-.09-13.77,12.89.28,20.71.29,7.51,0,20.61-.44t22.18-.44q13.08,0,19.39,1.66a35.51,35.51,0,0,1,11.38,5.22,34,34,0,0,1,8.4,8.35,35.22,35.22,0,0,1,5,10.89,47.1,47.1,0,0,1,1.66,12.45,46.41,46.41,0,0,1-6.35,23.93,39.58,39.58,0,0,1-17.87,16.21,60.54,60.54,0,0,1-25.88,5.37,74.42,74.42,0,0,1-12.2-1.17q-.78-4.48-2.93-13.38t-3.52-13.18a45.24,45.24,0,0,0,9,.88q9.86,0,14.69-4.74a15.55,15.55,0,0,0,4.84-11.57,15.26,15.26,0,0,0-1.08-5.91,9.62,9.62,0,0,0-3.42-4.25,12.63,12.63,0,0,0-5.17-2.15,38.85,38.85,0,0,0-6.45-.49q-3.51,0-7.32.2l-8.2.59q-1.26,18.84-1.94,41.89-1.25,42-1.25,50.39v12.7l-19.45-.2Q610.82,229,594.6,229.24Z" transform="translate(-5.11 -4.46)"/><path d="M720.48,229.24l1.74-21,3.78-73,1.07-39.28q13.59.19,20.43.19,8.89,0,19.66-.19l-2.23,30-3.59,73.82-.78,29.5q-10.45-.11-18.87-.1Z" transform="translate(-5.11 -4.46)"/><path d="M791.77,158q1.85-9.67,2.34-13.33c.32-2.44.85-6.27,1.56-11.48Q823.8,127,844,127a80.48,80.48,0,0,1,21.09,2.59q9.57,2.58,14.95,8.35t5.37,16.5q0,5.48-1.46,24.61t-2.24,50.2q-9.59-.19-19.06-.2-9.18,0-19.54.2,1.33-10.74,3-44.34-3.71,1.75-5.8,2.54t-7.36,2.34c-3.5,1.05-6.25,1.92-8.23,2.64a19.7,19.7,0,0,0-5.16,2.73,10.86,10.86,0,0,0-3.12,3.42,8.23,8.23,0,0,0-.92,3.91,7.32,7.32,0,0,0,2.63,5.66q2.64,2.36,8.4,2.35a30.43,30.43,0,0,0,4.4-.35,39.33,39.33,0,0,0,6.44-1.7q-2.83,7.51-6.74,22a99.38,99.38,0,0,1-15.92,1.37q-12.11,0-20.16-3.37a25.16,25.16,0,0,1-12.4-10.89,29.81,29.81,0,0,1-4.35-15,26,26,0,0,1,1.61-9,29.93,29.93,0,0,1,5-8.59,34.28,34.28,0,0,1,8-7.18A55.86,55.86,0,0,1,805,172.11a162.83,162.83,0,0,1,20.16-5q5.07-1,9.32-2.1a40.47,40.47,0,0,0,6-2,10,10,0,0,0,2.93-1.95,7.13,7.13,0,0,0,1.61-2.34,7.06,7.06,0,0,0,.49-2.59,6.38,6.38,0,0,0-3.13-5.71q-3.12-2-9.17-2Q816.46,148.47,791.77,158Z" transform="translate(-5.11 -4.46)"/><path d="M895.57,273.86q-3-23.34-4.1-29a53.47,53.47,0,0,0,10.9,4,37.57,37.57,0,0,0,8.16,1.08,23,23,0,0,0,6.79-1,16,16,0,0,0,5-2.39,22.17,22.17,0,0,0,4.06-4.35,35.2,35.2,0,0,0,3.27-5,32.84,32.84,0,0,0,2.16-6l-18.38-55.57-15.74-46.09q14.56.19,20.43.19,6.84,0,18.67-.19,1.86,7.51,6.89,26t7.28,28.9q1.28,5.76,2.45,14.65l2-7.81q1-3.12,2.25-7.13t3.22-9.57l6.34-17.77,10.54-27.25q12.2.19,18.44.19,5.47,0,19.52-.19L997,172.11l-34.06,79a65.35,65.35,0,0,1-6.35,10.55,39.35,39.35,0,0,1-6.16,6.15,33.81,33.81,0,0,1-6.74,4.1,52.13,52.13,0,0,1-10.75,3.52,63,63,0,0,1-13.09,1.36q-3,0-8-.43c-3.33-.3-6-.59-8.07-.88S899,274.65,895.57,273.86Z" transform="translate(-5.11 -4.46)"/><path d="M1118.62,199.74q-1.27,5.87-4.88,28.32-11.33,2.25-19,3t-15.63.74a132.22,132.22,0,0,1-21.39-1.61,49.59,49.59,0,0,1-16.84-5.71,40.92,40.92,0,0,1-11.87-10.2,42.91,42.91,0,0,1-7.27-14.49,60.29,60.29,0,0,1-2.49-17.26,63,63,0,0,1,5-24.44q5-12,12.84-18.69a46.53,46.53,0,0,1,18.11-9.56,78.48,78.48,0,0,1,21-2.83,85.12,85.12,0,0,1,21.24,2.59,39.22,39.22,0,0,1,17.14,9,37,37,0,0,1,10,14.55,50.45,50.45,0,0,1,3,17.48,69.17,69.17,0,0,1-1.27,12.41l-68.46.09c-.06,1-.1,2-.1,2.82q0,10.5,7.52,15.47t18.36,4.95a82.33,82.33,0,0,0,14.7-1.51A199.47,199.47,0,0,0,1118.62,199.74Zm-60.06-31.54h32.23c.06-1.11.1-2,.1-2.83a19.33,19.33,0,0,0-1.81-8.69,11.29,11.29,0,0,0-5.18-5.28,17,17,0,0,0-7.56-1.66,17.46,17.46,0,0,0-5.67.93,15.59,15.59,0,0,0-4.93,2.74,16.78,16.78,0,0,0-3.66,4.15,19.14,19.14,0,0,0-2.15,4.54A51.28,51.28,0,0,0,1058.56,168.2Z" transform="translate(-5.11 -4.46)"/><path d="M1140.2,229.24l3-43.36,1-24.91q.09-6.74.1-13.76t-.2-17.68q11.82.19,18.76.19,8.1,0,18.65-.19l-.41,11a70.42,70.42,0,0,1,6.26-6.39,32.07,32.07,0,0,1,5.57-3.81,26.48,26.48,0,0,1,6.54-2.54,30.32,30.32,0,0,1,7.13-.83,35.6,35.6,0,0,1,7.82,1q.11,10.64.49,17.58l.68,15a36,36,0,0,0-10-1.56,27,27,0,0,0-10.1,1.71,21.16,21.16,0,0,0-7.51,5.18,25.51,25.51,0,0,0-5.22,8.64q-1.95,5.17-2.73,16.41t-.78,25.68q0,5.07.39,12.6-9.48-.19-19.06-.2T1140.2,229.24Z" transform="translate(-5.11 -4.46)"/></svg>